    <svg
      xmlns="http://www.w3.org/2000/svg"
      width="126"
      height="16"
      viewBox="0 0 126 16"
      fill="none"
    >
      <g clipPath="url(#clip0_3738_55580)">
        <path
          d="M11.1561 3.22815C10.7965 4.251 10.4314 5.27111 10.0607 6.28847C9.68712 7.30582 9.32761 8.27919 8.97933 9.2113C8.63106 10.1434 8.30806 10.9463 8.01315 11.6172C7.70139 10.9408 7.37277 10.1352 7.03292 9.20306C6.69307 8.27094 6.33637 7.29757 5.96282 6.28022C5.58926 5.26286 5.22414 4.24275 4.86463 3.2199C4.50512 2.19704 4.17931 1.24018 3.88721 0.352051H0C0.331424 1.32541 0.727447 2.43076 1.18526 3.67083C1.64308 4.91091 2.14583 6.20873 2.69071 7.56429C3.23559 8.91985 3.81137 10.2919 4.41805 11.675C5.02472 13.0608 5.63982 14.3971 6.26335 15.6866H9.62533C10.246 14.4053 10.8583 13.069 11.4622 11.6832C12.0661 10.2974 12.6362 8.92534 13.1783 7.56704C13.7204 6.20873 14.2203 4.91366 14.6781 3.67633C15.136 2.43901 15.5376 1.33091 15.8887 0.352051H12.1335C11.8386 1.24568 11.5128 2.20254 11.1532 3.2254L11.1561 3.22815Z"
          fill="#F96815"
          fillOpacity="1"
        />
        <path
          d="M34.3248 7.71246C34.2265 6.34865 34.1142 5.03433 33.985 3.77226C33.8558 2.51019 33.7181 1.37185 33.5665 0.354492H30.3561C30.0837 0.841174 29.7691 1.44334 29.4152 2.15824C29.0585 2.87314 28.6906 3.64853 28.3058 4.48166C27.921 5.31479 27.539 6.16717 27.1627 7.0388C26.7835 7.91043 26.4296 8.72706 26.0982 9.49421C25.7668 8.72706 25.4101 7.90768 25.0337 7.0388C24.6545 6.16717 24.2754 5.31754 23.8878 4.48166C23.503 3.64853 23.1322 2.87314 22.7783 2.15824C22.4216 1.44334 22.1099 0.841174 21.8374 0.354492H18.4698C18.3182 1.37185 18.1805 2.51294 18.0513 3.77226C17.9221 5.03433 17.8098 6.3459 17.7115 7.71246C17.6132 9.07627 17.5233 10.4456 17.439 11.8176C17.3548 13.1897 17.2846 14.482 17.2256 15.6891H20.6606C20.7055 14.1988 20.7645 12.5765 20.8403 10.8195C20.9162 9.06527 21.0285 7.29452 21.1802 5.50727C21.4526 6.12593 21.7532 6.81333 22.0874 7.56673C22.4188 8.32012 22.7474 9.07077 23.0732 9.82416C23.3991 10.5776 23.7136 11.2952 24.0142 11.9826C24.3175 12.6673 24.5731 13.2557 24.7865 13.7424H27.2497C27.4604 13.2557 27.7188 12.67 28.0221 11.9826C28.3255 11.2952 28.6372 10.5776 28.963 9.82416C29.2888 9.07077 29.6175 8.32012 29.9489 7.56673C30.2803 6.81333 30.5836 6.12868 30.8561 5.50727C31.0078 7.29177 31.1201 9.06252 31.1959 10.8195C31.2718 12.5765 31.3308 14.1988 31.3757 15.6891H34.8107C34.7517 14.4793 34.6787 13.1897 34.5972 11.8176C34.513 10.4456 34.4231 9.07627 34.3248 7.71246Z"
          fill="#F96815"
          fillOpacity="1"
        />
        <path
          d="M50.5901 2.03471C49.8823 1.35556 49.0538 0.846881 48.1044 0.508678C47.1551 0.170476 46.144 0 45.0767 0C44.0094 0 43.046 0.170476 42.1051 0.508678C41.1642 0.84963 40.3328 1.35831 39.6194 2.03471C38.9032 2.71387 38.3358 3.54975 37.9117 4.54511C37.4904 5.54047 37.2798 6.69531 37.2798 8.00962C37.2798 9.32394 37.482 10.476 37.8893 11.4741C38.2965 12.4695 38.8526 13.3026 39.5632 13.9735C40.271 14.6444 41.0996 15.1504 42.0489 15.4886C42.9983 15.8268 44.0066 15.9972 45.0767 15.9972C46.1468 15.9972 47.2056 15.8268 48.1634 15.4886C49.1212 15.1504 49.9441 14.6444 50.6378 13.9735C51.3316 13.3026 51.8765 12.4695 52.2781 11.4741C52.6769 10.4788 52.8764 9.32394 52.8764 8.00962C52.8764 6.69531 52.6741 5.54322 52.2669 4.54511C51.8596 3.54975 51.3035 2.71112 50.5929 2.03471H50.5901ZM48.9498 10.0471C48.7617 10.652 48.4892 11.1717 48.1353 11.6061C47.7814 12.0406 47.3433 12.376 46.8237 12.6125C46.3041 12.8489 45.7199 12.9672 45.0711 12.9672C44.4222 12.9672 43.8212 12.8489 43.3072 12.6125C42.796 12.376 42.3607 12.0406 42.0068 11.6061C41.6529 11.1717 41.3805 10.652 41.1923 10.0471C41.0041 9.44217 40.9086 8.76302 40.9086 8.01237C40.9086 7.26173 41.0013 6.59907 41.1923 5.98866C41.3805 5.37549 41.6529 4.85307 42.0068 4.41863C42.3607 3.98419 42.7932 3.64324 43.3072 3.40127C43.8184 3.15656 44.4082 3.03557 45.0711 3.03557C45.7339 3.03557 46.3041 3.15381 46.8237 3.39027C47.3433 3.62674 47.7814 3.96219 48.1353 4.39663C48.4892 4.83107 48.7617 5.35625 48.9498 5.96666C49.138 6.57982 49.2335 7.26173 49.2335 8.01237C49.2335 8.76302 49.138 9.44217 48.9498 10.0471Z"
          fill="#F96815"
          fillOpacity="1"
        />
        <path
          d="M65.7789 9.40622C65.2368 8.60883 64.6554 7.77845 64.0375 6.91782C63.4196 6.05444 62.7989 5.22131 62.1726 4.41842C61.5462 3.61553 60.9339 2.85939 60.3301 2.14999C59.7262 1.44059 59.1785 0.843923 58.6786 0.357242H55.8081V15.6918H59.2881V5.642C60.6137 7.16253 61.8636 8.77656 63.0404 10.4896C64.2173 12.2026 65.307 13.9348 66.3182 15.6891H69.2785V0.354492H65.7733V9.40622H65.7789Z"
          fill="#F96815"
          fillOpacity="1"
        />
        <path
          d="M82.1563 8.25416C81.7575 7.87196 81.2547 7.53651 80.6537 7.2478C80.0498 6.95909 79.342 6.66763 78.5275 6.37342C78.1343 6.24144 77.7776 6.11221 77.4546 5.98573C77.1316 5.85925 76.8451 5.71902 76.5951 5.56504C76.3452 5.41106 76.1542 5.23783 76.0194 5.04536C75.8846 4.85289 75.8171 4.61642 75.8171 4.33596C75.8171 3.86303 76.0025 3.51383 76.3705 3.28561C76.7384 3.05739 77.3451 2.94191 78.1905 2.94191C78.9432 2.94191 79.5892 3.02714 80.1228 3.19762C80.6565 3.3681 81.1424 3.56332 81.5805 3.78329L82.5973 1.06117C82.1002 0.794458 81.4682 0.552492 80.6986 0.329774C79.929 0.107055 79.019 -0.00292969 77.963 -0.00292969C77.0726 -0.00292969 76.275 0.104305 75.5672 0.318775C74.8594 0.533245 74.2555 0.838452 73.7584 1.23715C73.2612 1.63584 72.8765 2.11977 72.604 2.68619C72.3316 3.25536 72.1968 3.89327 72.1968 4.59992C72.1968 5.30657 72.326 5.90874 72.5816 6.40367C72.8371 6.8986 73.1686 7.31929 73.5758 7.66574C73.9831 8.01219 74.4409 8.3009 74.9549 8.52912C75.4661 8.75734 75.98 8.96081 76.4912 9.13679C77.6681 9.52173 78.4966 9.87918 78.9769 10.2091C79.46 10.5418 79.7015 10.957 79.7015 11.4602C79.7015 11.6967 79.665 11.9111 79.5892 12.1009C79.5134 12.2933 79.3786 12.4583 79.1819 12.5985C78.9853 12.7388 78.7269 12.8488 78.4011 12.9313C78.0781 13.0137 77.6653 13.0522 77.1681 13.0522C76.1738 13.0522 75.3341 12.9532 74.6487 12.7525C73.9634 12.5546 73.3876 12.3291 72.9186 12.0789L71.9243 14.823C72.135 14.9412 72.3962 15.0677 72.7051 15.1997C73.0141 15.3317 73.382 15.4581 73.8117 15.5764C74.2415 15.6946 74.7358 15.7936 75.2919 15.8761C75.848 15.9558 76.4744 15.9971 77.1681 15.9971C79.2325 15.9971 80.7773 15.6011 81.8024 14.812C82.8276 14.0228 83.3388 12.912 83.3388 11.4822C83.3388 10.7453 83.2405 10.1184 83.0439 9.60147C82.8473 9.08454 82.5495 8.63636 82.1507 8.25141L82.1563 8.25416Z"
          fill="#F96815"
          fillOpacity="1"
        />
        <path
          d="M84.249 3.29658H88.9732V15.6891H92.4981V3.29658H97.2251V0.354492H84.249V3.29658Z"
          fill="#F96815"
          fillOpacity="1"
        />
        <path
          d="M103.011 9.09551H109.272V6.26341H103.011V3.25258H110.064V0.354492H99.4834V15.6891H110.583V12.791H103.011V9.09551Z"
          fill="#F96815"
          fillOpacity="1"
        />
        <path
          d="M125.118 13.9763C124.8 13.3934 124.475 12.8324 124.135 12.2935C123.795 11.7546 123.452 11.2377 123.107 10.7455C122.761 10.2505 122.43 9.81336 122.112 9.42841C123.062 9.04621 123.789 8.51829 124.295 7.84738C124.8 7.17648 125.053 6.3021 125.053 5.22425C125.053 3.49749 124.427 2.22442 123.177 1.40779C121.927 0.588403 120.127 0.178711 117.776 0.178711C117.127 0.178711 116.394 0.208957 115.571 0.266699C114.751 0.32444 113.956 0.428926 113.187 0.577405V15.692H116.714V10.0938H118.456C118.759 10.4485 119.059 10.8417 119.363 11.2789C119.666 11.7133 119.972 12.1753 120.281 12.662C120.59 13.1486 120.894 13.6518 121.188 14.166C121.483 14.6829 121.775 15.1916 122.062 15.692H126.005C125.733 15.1311 125.441 14.5592 125.123 13.9763H125.118ZM120.551 6.86027C119.978 7.18473 119.029 7.34695 117.703 7.34695H116.709V3.18679C116.888 3.17304 117.082 3.15654 117.284 3.14279C117.487 3.12905 117.717 3.1208 117.973 3.1208C119.102 3.1208 119.958 3.28027 120.537 3.59648C121.115 3.91269 121.408 4.44886 121.408 5.20225C121.408 5.95565 121.121 6.53857 120.548 6.86302L120.551 6.86027Z"
          fill="#F96815"
          fillOpacity="1"
        />
      </g>
      <defs>
        <clipPath id="clip0_3738_55580">
          <rect width="126" height="16" fill="white" />
        </clipPath>
      </defs>
    </svg>