<svg width="160" height="28" viewBox="0 0 160 28" fill="none" xmlns="http://www.w3.org/2000/svg">
<g clip-path="url(#clip0_4657_3479)">
<path d="M27.6826 20.8462C28.7158 19.3419 28.8163 17.4862 28.9514 15.7262C29.1079 13.6743 29.1426 11.5943 28.8031 9.55718C28.5592 8.10398 27.8803 6.25986 26.2243 6.03058C25.87 5.98109 25.5108 5.99099 25.1599 6.06522C22.8249 6.56006 21.7638 8.66316 20.7306 10.6013C20.7125 10.6359 20.6894 10.6739 20.6515 10.6854C20.6202 10.6953 20.6004 10.6871 20.5889 10.6706C20.5609 10.6326 20.584 10.5436 20.5938 10.5106C20.8295 9.70563 21.1014 8.96831 21.0371 8.11223C20.9794 7.32872 20.6416 6.54522 19.8754 6.23017C18.1353 5.51264 16.6013 6.98068 15.4148 8.75223C15.5236 8.00336 15.4906 7.2446 14.9815 6.69697C14.1708 5.82604 12.7421 5.91511 11.7963 6.48914C10.6495 7.18522 9.65089 8.30027 8.87973 9.37078C8.42 10.0108 7.98004 10.6656 7.59116 11.3518C7.58622 11.3601 7.58127 11.37 7.57633 11.3782C7.32587 11.8236 7.09518 12.2805 6.88426 12.7456C6.68817 13.1794 6.54976 13.6413 6.32072 14.0603C6.30259 14.0916 6.28117 14.1262 6.25151 14.1427C6.24162 14.1493 6.23009 14.1526 6.21856 14.1526C6.04883 14.1642 6.23833 13.5687 6.25481 13.4895C6.31907 13.1976 6.38004 12.9056 6.42782 12.612C6.50362 12.1551 6.5613 11.6949 6.60249 11.2347C6.61073 11.1473 6.61732 11.0599 6.62391 10.9724C6.71289 9.82109 6.73926 8.56749 6.34214 7.46563C5.93019 6.32089 4.85419 5.66439 3.64966 6.18563C3.23606 6.36377 2.87849 6.65408 2.57036 6.98233C2.55882 6.99553 2.54564 7.00872 2.53411 7.02192C1.33122 8.32996 0.827 10.1939 0.428236 11.8846C-0.0117227 13.7386 -0.120477 15.619 0.138226 17.5077C0.497443 20.137 2.54235 22.2846 5.38972 21.831C5.71598 21.7799 6.0719 21.7221 6.37345 21.5869C7.12813 21.2487 7.84162 20.8215 8.50239 20.325C8.74296 20.1452 8.97695 19.9555 9.2027 19.7576C10.1238 18.9592 10.9312 18.0421 11.6431 17.0557C11.4997 17.7733 11.4338 18.4974 11.475 19.2232C11.5145 19.9192 11.7502 20.6615 12.1588 21.191C13.0849 22.3918 14.5333 21.9613 15.5055 21.0805C16.6507 20.0429 17.3049 18.8207 17.7827 17.3939C17.8404 17.224 17.987 17.2949 17.9426 17.4582C17.8025 17.9761 17.758 18.1444 17.6855 18.6772C17.5504 19.6966 17.5636 21.1613 18.6083 21.6842C18.7154 21.7386 18.8274 21.7848 18.9411 21.8227C19.3827 21.9662 20.0501 21.9827 20.495 21.8442C21.9384 21.3906 22.7722 19.6603 23.2649 18.3539C23.3671 18.085 23.4511 17.8079 23.5566 17.5407C23.5862 17.4648 23.606 17.3856 23.6389 17.3114C23.6538 17.2768 23.7279 17.1283 23.784 17.1794C23.8482 17.2372 23.7526 17.5803 23.7428 17.6528C23.6933 18.0042 23.6109 18.3506 23.5796 18.7036C23.5022 19.5877 23.6571 20.5609 24.2289 21.2306C25.2686 22.4479 26.8291 22.0867 27.6826 20.8462Z" fill="#F96815"/>
<path d="M3.38765 18.0306C3.09599 18.4611 2.46653 18.4793 2.13533 18.0817C1.8997 17.7997 1.88816 17.412 1.90793 17.0442C1.94254 16.4405 2.03646 15.7114 2.55387 15.3155C2.89825 15.0516 3.43049 15.1456 3.64141 15.53C3.70896 15.652 3.74686 15.7922 3.76664 15.9324C3.61504 15.8021 3.36952 15.7873 3.1998 15.9077C2.89166 16.1271 2.83729 16.5345 2.81916 16.871C2.80763 17.0755 2.81586 17.2933 2.95757 17.45C3.13224 17.6446 3.44038 17.6628 3.62987 17.5044C3.57055 17.6957 3.4931 17.8755 3.38765 18.0306Z" fill="white"/>
<path d="M4.80035 17.448C4.97501 17.6427 5.28315 17.6608 5.47264 17.5025C5.41332 17.6938 5.33588 17.8736 5.23042 18.0286C4.93876 18.4592 4.30931 18.4773 3.9781 18.0798C3.74247 17.7977 3.73093 17.4101 3.75071 17.0422C3.78531 16.4385 3.87924 15.7095 4.39664 15.3136C4.74103 15.0497 5.27326 15.1437 5.48418 15.528C5.55174 15.6501 5.58964 15.7903 5.60941 15.9305C5.45781 15.8002 5.21229 15.7853 5.04257 15.9058C4.73444 16.1251 4.68006 16.5326 4.66193 16.8691C4.6504 17.0736 4.65864 17.2913 4.80035 17.448Z" fill="white"/>
<path d="M24.9922 14.9461C24.7846 15.4211 24.1683 15.5547 23.7695 15.2248C23.6394 15.1176 23.552 14.9774 23.4911 14.824C23.7267 14.9972 24.0876 14.9197 24.2128 14.6574C24.366 14.3358 24.3183 13.8937 24.2441 13.5621C24.2194 13.4549 24.1749 13.3444 24.1024 13.2603C23.9393 13.0723 23.6163 13.0772 23.4416 13.2586C23.3889 13.3131 23.3494 13.3725 23.3164 13.4351C23.3362 13.0657 23.4301 12.7061 23.6806 12.429C23.9722 12.1073 24.5127 12.1024 24.7895 12.4421C24.9148 12.5956 24.9906 12.7951 25.0318 12.9865C25.1603 13.5803 25.2443 14.3737 24.9922 14.9477V14.9461Z" fill="white"/>
<path d="M26.8369 14.9461C26.6293 15.4211 26.013 15.5547 25.6143 15.2248C25.4841 15.1176 25.3968 14.9774 25.3358 14.824C25.5714 14.9972 25.9323 14.9197 26.0575 14.6574C26.2108 14.3358 26.163 13.8937 26.0888 13.5621C26.0641 13.4549 26.0196 13.3444 25.9471 13.2603C25.784 13.0723 25.461 13.0772 25.2864 13.2586C25.2336 13.3131 25.1941 13.3725 25.1611 13.4351C25.1809 13.0657 25.2748 12.7061 25.5253 12.429C25.817 12.1073 26.3574 12.1024 26.6343 12.4421C26.7595 12.5956 26.8353 12.7951 26.8765 12.9865C27.005 13.5803 27.089 14.3737 26.8369 14.9477V14.9461Z" fill="white"/>
<path d="M47.6501 9.23047C47.2983 10.2542 46.9419 11.2733 46.5784 12.2901C46.215 13.3068 45.8609 14.2793 45.5208 15.2098C45.1807 16.1403 44.8662 16.9425 44.5773 17.6164C44.2721 16.9401 43.953 16.1356 43.6198 15.2051C43.2867 14.2746 42.9372 13.2998 42.5738 12.2831C42.2104 11.2663 41.8516 10.2472 41.5022 9.22348C41.1504 8.19972 40.8336 7.24359 40.5471 6.35742H36.7451C37.0713 7.32987 37.458 8.43525 37.9053 9.67589C38.3526 10.9165 38.8441 12.2131 39.3776 13.568C39.9111 14.9229 40.4748 16.2942 41.0666 17.6794C41.6583 19.0646 42.2617 20.4009 42.8697 21.6881H46.1568C46.7648 20.4055 47.3612 19.0716 47.9506 17.6864C48.54 16.3012 49.0991 14.9276 49.6302 13.5727C50.1614 12.2155 50.6483 10.9189 51.0956 9.68288C51.5429 8.44691 51.9366 7.3392 52.279 6.36209H48.6099C48.321 7.25525 48.0018 8.21138 47.6524 9.23514L47.6501 9.23047Z" fill="#F96815"/>
<path d="M70.2986 13.7126C70.2031 12.3484 70.0913 11.0355 69.9678 9.77617C69.842 8.51454 69.7069 7.37652 69.5601 6.35742H66.4221C66.1566 6.84481 65.8491 7.44414 65.5019 8.16007C65.1548 8.876 64.7937 9.65024 64.4163 10.4828C64.0389 11.3153 63.6662 12.1688 63.2981 13.0387C62.9277 13.9085 62.5806 14.727 62.2568 15.4943C61.9306 14.727 61.5835 13.9085 61.2154 13.0387C60.845 12.1688 60.4723 11.3176 60.0972 10.4828C59.7198 9.65024 59.3587 8.876 59.0116 8.16007C58.6645 7.44414 58.357 6.84481 58.0914 6.35742H54.7997C54.6529 7.37418 54.5155 8.51454 54.392 9.77617C54.2662 11.0378 54.1567 12.3507 54.0612 13.7126C53.9657 15.0768 53.8771 16.4434 53.7956 17.817C53.7141 19.1882 53.6442 20.4801 53.5859 21.6881H56.9452C56.9895 20.198 57.0477 18.5772 57.1223 16.8212C57.1968 15.0675 57.3063 13.2975 57.4531 11.5112C57.7187 12.1315 58.0145 12.8171 58.3407 13.568C58.6645 14.3189 58.986 15.0722 59.3051 15.8254C59.622 16.5787 59.9295 17.2969 60.2254 17.9825C60.5212 18.6682 60.7728 19.2535 60.9801 19.7409H63.389C63.5963 19.2535 63.8479 18.6682 64.1438 17.9825C64.4396 17.2969 64.7448 16.5787 65.064 15.8254C65.3808 15.0745 65.7023 14.3213 66.0284 13.568C66.3522 12.8171 66.6481 12.1292 66.916 11.5112C67.0628 13.2952 67.1746 15.0652 67.2468 16.8212C67.3214 18.5772 67.3796 20.198 67.4239 21.6881H70.7832C70.7249 20.4801 70.6551 19.1882 70.5735 17.817C70.492 16.4457 70.4035 15.0768 70.3079 13.7126H70.2986Z" fill="#F96815"/>
<path d="M86.1988 8.03781C85.5069 7.35919 84.6962 6.85081 83.769 6.51033C82.8418 6.17219 81.8541 6.00195 80.8081 6.00195C79.7621 6.00195 78.8232 6.17219 77.903 6.51033C76.9828 6.85081 76.1721 7.35919 75.4732 8.03781C74.7743 8.71643 74.2176 9.55362 73.8052 10.5494C73.3929 11.5452 73.1855 12.6995 73.1855 14.0124C73.1855 15.3254 73.3836 16.4797 73.7819 17.4755C74.1803 18.4713 74.7254 19.3038 75.4173 19.9754C76.1092 20.647 76.9199 21.1508 77.8471 21.4912C78.7743 21.8294 79.7621 21.9996 80.8081 21.9996C81.8541 21.9996 82.8884 21.8294 83.8249 21.4912C84.7614 21.1531 85.5675 20.647 86.2454 19.9754C86.9233 19.3038 87.4568 18.4713 87.8482 17.4755C88.2395 16.4797 88.4329 15.3254 88.4329 14.0124C88.4329 12.6995 88.2349 11.5452 87.8365 10.5494C87.4382 9.55362 86.893 8.71643 86.2011 8.03781H86.1988ZM84.596 16.046C84.412 16.65 84.1464 17.17 83.8016 17.6061C83.4545 18.0422 83.0282 18.378 82.5203 18.6135C82.0125 18.8491 81.4417 18.968 80.8081 18.968C80.1744 18.968 79.585 18.8491 79.0841 18.6135C78.5833 18.378 78.1593 18.0422 77.8145 17.6061C77.4674 17.1723 77.2041 16.6523 77.0201 16.046C76.8361 15.442 76.7429 14.7634 76.7429 14.0101C76.7429 13.2569 76.8337 12.5992 77.0201 11.9859C77.2041 11.3749 77.4697 10.8502 77.8145 10.4165C78.1593 9.98271 78.5833 9.64224 79.0841 9.39971C79.585 9.15718 80.1604 9.03591 80.8081 9.03591C81.4557 9.03591 82.0125 9.15485 82.5203 9.39038C83.0282 9.62591 83.4568 9.96173 83.8016 10.3978C84.1464 10.8339 84.412 11.3563 84.596 11.9673C84.7801 12.5783 84.8733 13.2615 84.8733 14.0124C84.8733 14.7634 84.7801 15.442 84.596 16.0483V16.046Z" fill="#F96815"/>
<path d="M101.048 15.4057C100.516 14.6104 99.9503 13.7802 99.3469 12.9174C98.7435 12.0545 98.1355 11.222 97.5228 10.4175C96.9125 9.61292 96.3114 8.85735 95.722 8.15075C95.1326 7.44181 94.5945 6.84481 94.1099 6.35975H91.3027V21.6881H94.7063V11.6464C96.0016 13.1646 97.2246 14.7807 98.3755 16.4901C99.524 18.2018 100.593 19.9345 101.579 21.6881H104.474V6.35742H101.05V15.4057H101.048Z" fill="#F96815"/>
<path d="M117.059 14.2554C116.667 13.8729 116.178 13.5371 115.589 13.2479C114.999 12.9611 114.307 12.6696 113.511 12.3734C113.126 12.2405 112.777 12.1122 112.46 11.9863C112.143 11.8604 111.864 11.7204 111.621 11.5665C111.379 11.4126 111.19 11.2377 111.058 11.0465C110.925 10.8553 110.86 10.6197 110.86 10.3376C110.86 9.86649 111.039 9.51669 111.4 9.28582C111.761 9.05728 112.353 8.94301 113.18 8.94301C113.916 8.94301 114.545 9.02696 115.069 9.1972C115.591 9.36744 116.066 9.561 116.495 9.78254L117.49 7.06107C117.003 6.79522 116.385 6.55269 115.633 6.33115C114.88 6.10961 113.991 6 112.959 6C112.09 6 111.309 6.10727 110.617 6.32182C109.925 6.53636 109.336 6.84186 108.849 7.24063C108.362 7.63941 107.987 8.12214 107.722 8.68882C107.456 9.2555 107.323 9.89448 107.323 10.6011C107.323 11.3077 107.449 11.9093 107.698 12.4037C107.948 12.8981 108.274 13.3179 108.67 13.6654C109.068 14.0128 109.518 14.2997 110.019 14.5282C110.519 14.7567 111.02 14.9596 111.521 15.1369C112.67 15.5216 113.48 15.8784 113.951 16.2096C114.422 16.5407 114.659 16.9582 114.659 17.4596C114.659 17.6951 114.622 17.9096 114.55 18.1009C114.475 18.2921 114.342 18.4577 114.151 18.5976C113.96 18.7375 113.706 18.8494 113.39 18.9287C113.073 19.0103 112.672 19.05 112.185 19.05C111.214 19.05 110.391 18.9497 109.72 18.7515C109.049 18.5533 108.486 18.3271 108.029 18.0775L107.058 20.82C107.263 20.9389 107.519 21.0625 107.819 21.1955C108.122 21.3284 108.483 21.4543 108.903 21.5709C109.322 21.6898 109.804 21.7878 110.349 21.8694C110.895 21.951 111.505 21.9907 112.183 21.9907C114.2 21.9907 115.71 21.5966 116.714 20.806C117.716 20.0178 118.216 18.9077 118.216 17.4759C118.216 16.739 118.121 16.1116 117.93 15.5963C117.739 15.0809 117.448 14.6308 117.056 14.246L117.059 14.2554Z" fill="#F96815"/>
<path d="M119.103 9.30043H123.72V21.6881H127.168V9.30043H131.787V6.35742H119.103V9.30043Z" fill="#F96815"/>
<path d="M137.444 15.0955H143.564V12.2644H137.444V9.25612H144.337V6.35742H133.996V21.6881H144.847V18.7894H137.444V15.0955Z" fill="#F96815"/>
<path d="M159.056 19.9728C158.746 19.3898 158.427 18.8301 158.094 18.2914C157.763 17.7528 157.427 17.2374 157.087 16.743C156.749 16.2486 156.423 15.8102 156.116 15.4277C157.043 15.0453 157.754 14.5182 158.247 13.8466C158.741 13.175 158.988 12.3028 158.988 11.2254C158.988 9.49973 158.376 8.22878 157.155 7.41024C155.932 6.5917 154.171 6.18359 151.874 6.18359C151.24 6.18359 150.522 6.21391 149.719 6.27221C148.915 6.33051 148.139 6.43545 147.387 6.58237V21.6915H150.835V16.0947H152.535C152.831 16.4492 153.127 16.8433 153.423 17.277C153.719 17.7131 154.017 18.1725 154.322 18.6599C154.625 19.1473 154.921 19.6487 155.21 20.1641C155.498 20.6794 155.783 21.1902 156.065 21.6915H159.918C159.652 21.1319 159.366 20.5605 159.056 19.9775V19.9728ZM154.592 12.8602C154.033 13.1843 153.104 13.3476 151.808 13.3476H150.837V9.18957C151.014 9.17558 151.2 9.15925 151.401 9.14526C151.599 9.13127 151.825 9.12427 152.074 9.12427C153.178 9.12427 154.014 9.28285 154.583 9.60001C155.149 9.91716 155.433 10.4512 155.433 11.2044C155.433 11.9577 155.154 12.5384 154.595 12.8625L154.592 12.8602Z" fill="#F96815"/>
</g>
<defs>
<clipPath id="clip0_4657_3479">
<rect width="160" height="16" fill="white" transform="translate(0 6)"/>
</clipPath>
</defs>
</svg>
